{"title":"Main Street 2010 XVID DVDRIP SAFCuk009+Fabreezy","uid":6113718,"size":892122375,"categoryP":"video","categoryS":"movies","magnet":"?xt=urn:btih:417e18003083559ff3997908830a662a79d0a990&amp;dn=Main+Street+2010+XVID+DVDRIP+SAFCuk009%2BFabreezy&amp;tr=udp%3A%2F%2Ftracker.openbittorrent.com%3A80&amp;tr=udp%3A%2F%2Fopen.demonii.com%3A1337&amp;tr=udp%3A%2F%2Ftracker.coppersurfer.tk%3A6969&amp;tr=udp%3A%2F%2Fexodus.desync.com%3A6969","seeders":0,"leechers":0,"uploader":"SAFCukO09","files":2,"time":1295463179,"description":"Format : AVI\nFormat/Info : Audio Video Interleave\nFile size : 851 MiB\nDuration : 1h 23mn\nOverall bit rate : 1 428 Kbps\nWriting library : VirtualDub build 32839/release\n\nVideo\nID : 0\nFormat : MPEG-4 Visual\nFormat profile : Advanced Simple@L5\nFormat settings, BVOP : Yes\nFormat settings, QPel : No\nFormat settings, GMC : No warppoints\nFormat settings, Matrix : Custom\nCodec ID : XVID\nCodec ID/Hint : XviD\nDuration : 1h 23mn\nBit rate : 1 291 Kbps\nWidth : 624 pixels\nHeight : 352 pixels\nDisplay aspect ratio : 16:9\nFrame rate : 25.000 fps\nColor space : YUV\nChroma subsampling : 4:2:0\nBit depth : 8 bits\nScan type : Progressive\nBits/(Pixel*Frame) : 0.235\nStream size : 769 MiB (90%)\nWriting library : XviD 1.2.1 (UTC 2008-12-04)\n\nAudio\nID : 1\nFormat : MPEG Audio\nFormat version : Version 1\nFormat profile : Layer 3\nMode : Joint stereo\nMode extension : MS Stereo\nCodec ID : 55\nCodec ID/Hint : MP3\nDuration : 1h 23mn\nBit rate mode : Constant\nBit rate : 128 Kbps\nChannel(s) : 2 channels\nSampling rate : 48.0 KHz\nStream size : 76.2 MiB (9%)\nAlignment : Split accross interleaves\nInterleave, duration : 40 ms (1.00 video frame)\nInterleave, preload duration : 500 ms\n\n\n\n &lt;a href=&quot;\nhttp://www.imdb.com/title/tt1365483/&quot; rel=&quot;nofollow&quot; target=&quot;_NEW&quot;&gt;\nhttp://www.imdb.com/title/tt1365483/&lt;/a&gt;\n\n\n\n\nUsers: 6.3/10 (44 votes) 1 review | Critics: 2 reviews\n\nSeveral residents of a small Southern city whose lives are changed by the arrival of a stranger with a controversial plan to save their decaying hometown... See full summary Ã‚Â»\nDirector:\nJohn Doyle\nWriter:\nHorton Foote (screenplay)\nStars:\nColin Firth, Orlando Bloom and Amber Tamblyn\nOwn the rights? Add a poster Ã‚Â» http://img256.imageshack.us/img256/5808/mains10","torrent":{"xt":"urn:btih:417e18003083559ff3997908830a662a79d0a990","amp;dn":"Main+Street+2010+XVID+DVDRIP+SAFCuk009%2BFabreezy","amp;tr":["udp%3A%2F%2Ftracker.openbittorrent.com%3A80","udp%3A%2F%2Fopen.demonii.com%3A1337","udp%3A%2F%2Ftracker.coppersurfer.tk%3A6969","udp%3A%2F%2Fexodus.desync.com%3A6969"],"infoHash":"417e18003083559ff3997908830a662a79d0a990","infoHashBuffer":{"type":"Buffer","data":[65,126,24,0,48,131,85,159,243,153,121,8,131,10,102,42,121,208,169,144]},"announce":[],"urlList":[]}}